<?xml version="1.0" encoding="UTF-8" standalone="no"?>
<!-- Created with Inkscape (http://www.inkscape.org/) -->

<svg
   xmlns:dc="http://purl.org/dc/elements/1.1/"
   xmlns:cc="http://creativecommons.org/ns#"
   xmlns:rdf="http://www.w3.org/1999/02/22-rdf-syntax-ns#"
   xmlns:svg="http://www.w3.org/2000/svg"
   xmlns="http://www.w3.org/2000/svg"
   xmlns:sodipodi="http://sodipodi.sourceforge.net/DTD/sodipodi-0.dtd"
   xmlns:inkscape="http://www.inkscape.org/namespaces/inkscape"
   width="400"
   height="171"
   viewBox="0 0 400 171"
   id="svg3373"
   version="1.1"
   inkscape:version="0.91 r13725"
   sodipodi:docname="articon1.svg">
  <defs
     id="defs3375" />
  <sodipodi:namedview
     id="base"
     pagecolor="#ffffff"
     bordercolor="#666666"
     borderopacity="1.0"
     inkscape:pageopacity="0.0"
     inkscape:pageshadow="2"
     inkscape:zoom="1.979899"
     inkscape:cx="239.47491"
     inkscape:cy="119.9664"
     inkscape:document-units="px"
     inkscape:current-layer="layer1"
     showgrid="false"
     units="px"
     inkscape:window-width="1366"
     inkscape:window-height="745"
     inkscape:window-x="-8"
     inkscape:window-y="-8"
     inkscape:window-maximized="1" />
  <metadata
     id="metadata3378">
    <rdf:RDF>
      <cc:Work
         rdf:about="">
        <dc:format>image/svg+xml</dc:format>
        <dc:type
           rdf:resource="http://purl.org/dc/dcmitype/StillImage" />
        <dc:title></dc:title>
      </cc:Work>
    </rdf:RDF>
  </metadata>
  <g
     inkscape:label="Layer 1"
     inkscape:groupmode="layer"
     id="layer1"
     transform="translate(0,-881.36216)">
    <g
       style="font-style:normal;font-weight:normal;font-size:142.45410156px;line-height:125%;font-family:sans-serif;letter-spacing:0px;word-spacing:0px;fill:none;fill-opacity:1;stroke:#fff;stroke-width:3px;stroke-linecap:butt;stroke-linejoin:miter;stroke-opacity:1;transition:all 1s;"
       id="txt">
      <path
         d="m -2.5596619e-6,1016.8636 q 0,-10.6841 21.6530235596619,-44.58815 -8.6897,-0.71228 -15.3850431,-0.71228 l -4.9858935,0 q 2.7066279,-7.40761 14.8152266,-7.40761 3.703807,0 10.256695,0.99718 10.968966,-16.52468 22.22284,-31.05499 11.396328,-14.67278 17.949217,-20.7983 4.131169,-3.98872 6.837797,-3.98872 2.991536,0 7.550067,4.55853 -4.700985,3.70381 -13.53314,35.47107 -8.6897,31.62482 -8.6897,49.14667 0,11.3963 5.270802,11.3963 7.834976,0 18.661487,-21.08318 l 1.424541,1.42454 q -4.416077,11.68124 -11.11142,18.80394 -6.552888,7.1227 -13.533139,7.1227 -11.11142,0 -11.11142,-19.08884 0,-9.11706 2.42172,-21.22566 -9.117063,-1.42454 -21.083207,-2.84908 Q 15.669949,998.62945 4.8434369,1024.2712 -2.5596619e-6,1021.5646 -2.5596619e-6,1016.8636 Z M 33.334257,966.43483 l 10.39915,2.42172 q 6.695342,1.56699 7.977429,1.99435 5.983073,-28.06345 17.094492,-52.56556 -12.963323,7.97743 -35.471071,48.14949 z"
         style="font-style:normal;font-variant:normal;font-weight:normal;font-stretch:normal;font-family:'Dancing Script';-inkscape-font-specification:'Dancing Script'"
         id="path3386" />
      <path
         d="m 79.912301,993.78601 q 6.837796,-13.24823 11.538782,-27.06627 -1.424541,-1.42455 -1.424541,-3.4189 0,-3.84626 2.136811,-6.69535 2.279266,-2.99153 3.846261,-2.99153 1.994357,0 1.994357,3.4189 0,0.56981 -0.854724,2.84908 -0.712271,2.13681 -0.712271,2.42172 0,1.70945 2.279266,3.7038 2.279268,1.85191 4.985898,3.56136 2.70662,1.70945 4.98589,5.12835 2.27926,3.27644 2.27926,7.40761 0,4.70098 -3.56135,13.10578 -3.56135,8.26234 -3.56135,10.96894 0,4.2736 4.27362,4.2736 6.26798,0 13.6756,-7.1227 7.55006,-7.12267 10.5416,-14.10292 l 1.8519,1.42454 q -4.41607,9.82938 -12.82087,17.37938 -8.40479,7.5501 -16.95203,7.5501 -4.843443,0 -7.692525,-2.5642 -2.706628,-2.5642 -2.706628,-6.6953 0,-4.2736 3.84626,-13.53316 3.988713,-9.40197 3.988713,-13.10578 0,-1.42454 -0.42736,-2.70663 -0.42736,-1.42454 -0.85472,-2.13681 -0.28491,-0.85473 -1.424546,-1.8519 l -1.566995,-1.42455 q -0.427362,-0.42736 -1.994357,-1.42454 -1.424541,-0.99717 -1.70945,-1.28208 -6.695342,17.09449 -12.678415,27.35118 l -1.282086,-2.42172 z"
         style="font-style:normal;font-variant:normal;font-weight:normal;font-stretch:normal;font-family:'Dancing Script';-inkscape-font-specification:'Dancing Script'"
         id="path3388" />
      <path
         d="m 129.00332,1004.3276 q 0,-12.25103 8.26234,-34.33142 -3.4189,-0.56982 -5.12835,-1.13963 l 0,-2.56418 q 5.12835,0.56982 6.26798,0.56982 6.26798,-16.23977 13.39069,-28.06346 7.26516,-11.96614 11.39633,-11.96614 1.13963,0 1.99435,0.85472 0.99718,0.85473 0.99718,2.27927 0,2.13681 -2.84908,7.40761 -2.70663,5.2708 -7.83498,14.10296 -4.98589,8.83215 -8.26233,15.8124 l 5.2708,0 q 11.82369,0 20.37093,-0.85472 l 0,2.56417 q -15.10013,1.70945 -24.35965,1.70945 -0.42736,0 -0.71227,0 l -2.13681,0 q -7.83497,17.80676 -7.83497,30.91255 0,6.4104 1.8519,8.9746 1.8519,2.5642 6.12553,2.5642 7.26515,0 14.38786,-6.4105 7.1227,-6.5529 12.67841,-17.94918 l 1.85191,1.42454 q -5.2708,12.39354 -14.24541,20.37094 -8.97461,7.835 -18.80394,7.835 -12.67842,0 -12.67842,-14.103 z"
         style="font-style:normal;font-variant:normal;font-weight:normal;font-stretch:normal;font-family:'Dancing Script';-inkscape-font-specification:'Dancing Script'"
         id="path3390" />
      <path
         d="m 164.78156,1024.4136 q 0.42737,-3.7038 2.27927,-6.1255 1.8519,-2.4217 5.2708,-3.5613 3.56135,-0.9972 6.98025,-1.4246 3.4189,-0.2849 8.6897,-0.2849 5.98307,-12.9633 15.10014,-51.71082 9.11706,-38.74752 10.82651,-43.59096 -18.9464,0.42737 -32.05217,2.84909 1.99435,-10.96897 28.77572,-10.96897 0.14246,0 0.28491,0 17.23695,0 37.32298,2.99154 -4.9859,4.98589 -13.53314,4.98589 -0.14246,0 -0.28491,0 -11.11142,0 -15.5275,0.14245 -10.5416,56.69674 -14.10295,71.0846 -4.9859,19.65868 -11.96615,24.35968 4.13117,0.2849 14.95768,1.4245 10.96897,1.1396 15.95486,1.2821 -6.12553,6.1255 -16.09731,6.1255 l -8.6897,0 q -6.98025,0 -9.54443,0.1425 -2.42172,0.1424 -7.69252,0.2849 -5.12835,0.2849 -9.11706,0.7123 -3.84626,0.5698 -7.83498,1.282 z"
         style="font-style:normal;font-variant:normal;font-weight:normal;font-stretch:normal;font-family:'Dancing Script';-inkscape-font-specification:'Dancing Script'"
         id="path3392" />
      <path
         d="m 230.69329,1001.621 q 0,-14.10297 9.97178,-25.92666 10.11425,-11.96614 21.22567,-11.96614 5.41325,0 7.69252,3.13399 2.42172,2.99154 2.42172,7.40761 0,4.27363 -1.99436,7.40762 -1.8519,2.99153 -5.12835,2.99153 -2.42172,0 -4.13117,-2.13681 2.13681,-0.99718 3.70381,-4.41608 1.56699,-3.56135 1.56699,-6.83779 0,-3.56136 -3.13399,-3.56136 -7.40761,0 -15.38504,12.1086 -7.97743,12.1086 -7.97743,22.79269 0,11.8237 10.39915,11.8237 8.6897,0 17.09449,-7.1227 8.54725,-7.1228 13.10578,-18.66153 l 1.8519,1.42454 q -4.84344,12.96329 -14.95768,21.36809 -9.97178,8.4048 -20.37093,8.4048 -7.12271,0 -11.53879,-4.701 -4.41607,-4.701 -4.41607,-13.5331 z"
         style="font-style:normal;font-variant:normal;font-weight:normal;font-stretch:normal;font-family:'Dancing Script';-inkscape-font-specification:'Dancing Script'"
         id="path3394" />
      <path
         d="m 275.88908,1003.4729 q 0,-9.11707 5.12835,-18.09168 5.2708,-9.11706 11.25387,-9.11706 1.28209,0 2.99154,0.71227 -2.70663,2.27927 -6.41043,11.39633 -3.70381,8.97461 -3.70381,14.10294 0,8.1199 5.12835,8.1199 6.26798,0 15.24259,-11.39633 -3.98872,-3.27644 -6.26798,-8.54725 -2.13682,-5.2708 -2.13682,-10.96896 0,-7.40761 3.70381,-12.67842 3.84626,-5.2708 10.2567,-5.2708 9.82933,0 9.82933,10.96897 0,11.11142 -9.54443,25.35683 2.56418,1.42454 5.41326,1.42454 4.13117,0 8.54725,-2.42172 4.41607,-2.56417 6.69534,-7.83498 l 1.70945,1.42454 q -2.70663,6.26798 -7.69252,9.25952 -4.9859,2.99156 -10.2567,2.99156 -3.84626,0 -6.8378,-1.4246 -11.39632,14.9577 -21.79547,14.9577 -5.84062,0 -8.54725,-3.5613 -2.70663,-3.5614 -2.70663,-9.402 z m 27.35119,-23.36248 q 0,9.68688 4.84344,15.38504 8.26234,-12.25105 8.26234,-21.93793 0,-7.97743 -4.27363,-7.97743 -3.13399,0 -5.98307,4.41608 -2.84908,4.27362 -2.84908,10.11424 z"
         style="font-style:normal;font-variant:normal;font-weight:normal;font-stretch:normal;font-family:'Dancing Script';-inkscape-font-specification:'Dancing Script'"
         id="path3396" />
      <path
         d="m 323.92951,1010.8805 q 0,-0.4274 2.56418,-6.6953 2.42172,-6.26802 4.98589,-14.53035 2.56417,-8.4048 2.56417,-13.81805 2.70663,-2.99154 6.55289,-2.99154 3.84626,0 3.84626,3.70381 0,4.84344 -4.55853,18.80394 16.38222,-25.07192 29.63045,-25.07192 5.12835,0 7.83498,3.84626 2.70663,3.70381 2.70663,8.97461 0,4.70098 -2.99154,11.96614 -2.84908,7.2652 -2.84908,10.5416 0,5.4133 4.27362,5.4133 8.83216,0 19.94358,-22.22288 L 400,990.65202 q -10.25669,24.07478 -24.64456,24.07478 -4.84344,0 -7.40761,-2.5642 -2.56417,-2.4217 -2.56417,-6.5529 0,-2.8491 1.99435,-9.54442 2.13681,-6.8378 2.13681,-10.2567 0,-6.98025 -5.69816,-6.98025 -3.4189,0 -7.40761,2.70663 -3.84626,2.70663 -6.8378,5.84062 -2.99154,3.13399 -7.1227,9.11706 -3.98872,5.98306 -5.69817,8.83216 l -5.2708,8.6897 q -5.2708,0 -7.55007,-3.134 z"
         style="font-style:normal;font-variant:normal;font-weight:normal;font-stretch:normal;font-family:'Dancing Script';-inkscape-font-specification:'Dancing Script'"
         id="path3398" />
    </g>
  </g>
</svg>
