<?xml version="1.0" encoding="UTF-8" standalone="no"?>
<!-- Created with Inkscape (http://www.inkscape.org/) -->

<svg
   xmlns:dc="http://purl.org/dc/elements/1.1/"
   xmlns:cc="http://creativecommons.org/ns#"
   xmlns:rdf="http://www.w3.org/1999/02/22-rdf-syntax-ns#"
   xmlns:svg="http://www.w3.org/2000/svg"
   xmlns="http://www.w3.org/2000/svg"
   xmlns:sodipodi="http://sodipodi.sourceforge.net/DTD/sodipodi-0.dtd"
   xmlns:inkscape="http://www.inkscape.org/namespaces/inkscape"
   width="600"
   height="300"
   viewBox="0 0 600 300"
   id="svg2"
   version="1.1"
   inkscape:version="0.91 r13725"
   sodipodi:docname="metro.svg">
  <defs
     id="defs4" />
  <sodipodi:namedview
     id="base"
     pagecolor="#ffffff"
     bordercolor="#666666"
     borderopacity="1.0"
     inkscape:pageopacity="0.0"
     inkscape:pageshadow="2"
     inkscape:zoom="0.35"
     inkscape:cx="902.95353"
     inkscape:cy="375.725"
     inkscape:document-units="px"
     inkscape:current-layer="layer1"
     showgrid="false"
     width="1280mm"
     units="px"
     inkscape:window-width="1366"
     inkscape:window-height="705"
     inkscape:window-x="-8"
     inkscape:window-y="-8"
     inkscape:window-maximized="1" />
  <metadata
     id="metadata7">
    <rdf:RDF>
      <cc:Work
         rdf:about="">
        <dc:format>image/svg+xml</dc:format>
        <dc:type
           rdf:resource="http://purl.org/dc/dcmitype/StillImage" />
        <dc:title></dc:title>
      </cc:Work>
    </rdf:RDF>
  </metadata>
  <g
     inkscape:label="Layer 1"
     inkscape:groupmode="layer"
     id="layer1"
     transform="translate(0,-752.3623)">
    <g
       id="g4187"
       transform="matrix(-1,0,0,1,953.49728,57.125489)">
      <g
         style="stroke:#ffffff;stroke-width:2;stroke-opacity:1"
         id="g4428">
        <g
           style="stroke:#ffffff;stroke-width:2;stroke-opacity:1"
           id="g4256-5-2-1"
           transform="matrix(0.93947409,0,0,0.93947409,143.09383,170.05765)" />
        <g
           style="stroke:#ffffff;stroke-width:2;stroke-opacity:1"
           id="g4256-5-2-1-1"
           transform="matrix(0.93947409,0,0,0.93947409,55.521224,170.05765)" />
        <g
           style="stroke:#ffffff;stroke-width:2;stroke-opacity:1"
           id="g4256-5-2-1-1-0"
           transform="matrix(0.93947409,0,0,0.93947409,172.28456,170.05765)" />
        <g
           style="stroke:#ffffff;stroke-width:2;stroke-opacity:1"
           id="g4256-5-2-1-1-0-1"
           transform="matrix(0.93947409,0,0,0.93947409,113.90286,170.05765)" />
        <g
           style="stroke:#ffffff;stroke-width:2;stroke-opacity:1"
           id="g4256-5-2-1-1-0-1-8"
           transform="matrix(0.93947409,0,0,0.93947409,84.711982,170.05765)" />
      </g>
      <g
         style="fill:#ffffff;fill-opacity:0.69803922;stroke:#ffffff;stroke-width:2;stroke-opacity:0.61960784"
         id="g4740">
        <g
           style="fill:#ffffff;fill-opacity:0.69803922;stroke:#ffffff;stroke-width:2;stroke-opacity:0.61960784"
           id="g4256-5-2-1-2"
           transform="matrix(0.93947409,0,0,0.93947409,463.12624,169.93147)" />
        <g
           style="fill:#ffffff;fill-opacity:0.69803922;stroke:#ffffff;stroke-width:2;stroke-opacity:0.61960784"
           id="g4256-5-2-1-1-2"
           transform="matrix(0.93947409,0,0,0.93947409,375.67339,169.93147)" />
        <g
           style="fill:#ffffff;fill-opacity:0.69803922;stroke:#ffffff;stroke-width:2;stroke-opacity:0.61960784"
           id="g4256-5-2-1-1-0-3"
           transform="matrix(0.93947409,0,0,0.93947409,492.27718,169.93147)" />
        <g
           style="fill:#ffffff;fill-opacity:0.69803922;stroke:#ffffff;stroke-width:2;stroke-opacity:0.61960784"
           id="g4256-5-2-1-1-0-1-7"
           transform="matrix(0.93947409,0,0,0.93947409,433.97531,169.93147)" />
        <g
           style="fill:#ffffff;fill-opacity:0.69803922;stroke:#ffffff;stroke-width:2;stroke-opacity:0.61960784"
           id="g4256-5-2-1-1-0-1-8-5"
           transform="matrix(0.93947409,0,0,0.93947409,404.82435,169.93147)" />
        <g
           style="fill:#ffffff;fill-opacity:0.69803922;stroke:#ffffff;stroke-width:2;stroke-opacity:0.61960784"
           id="g4256-5-2-1-1-2-8"
           transform="matrix(0.93947409,0,0,0.93947409,317.37156,169.93147)" />
        <g
           style="fill:#ffffff;fill-opacity:0.69803922;stroke:#ffffff;stroke-width:2;stroke-opacity:0.61960784"
           id="g4256-5-2-1-1-0-1-8-5-7"
           transform="matrix(0.93947409,0,0,0.93947409,346.52246,169.93147)" />
      </g>
      <g
         style="fill:#ffffff;fill-opacity:0.69803922;stroke:#ffffff;stroke-width:2;stroke-opacity:0.61960784"
         transform="matrix(0.82453156,0,0,0.82453156,326.62211,250.10967)"
         id="g4256-5-2-1-1-2-8-3" />
      <g
         style="fill:#ffffff;fill-opacity:0.69803922;stroke:#ffffff;stroke-width:2;stroke-opacity:0.61960784"
         transform="matrix(0.82453156,0,0,0.82453156,259.44354,250.75248)"
         id="g4256-5-2-1-1-2-8-3-3" />
      <path
         id="path4216"
         style="opacity:1;fill:none;fill-opacity:1;stroke:#ffffff;stroke-width:2;stroke-width:2;stroke-linecap:butt;stroke-linejoin:bevel;stroke-miterlimit:4;stroke-dasharray:none;stroke-opacity:0.94418604"
         d="m 457.57812,807.86035 c -25.07781,0 -58.02037,14.25697 -76.20312,45.05078 -4.54569,4.04061 -2,18.68945 -2,18.68945 0,5.54 4.96587,11.09671 25.17188,11.01172 l 240.53906,-1.01172 c 5.53995,-0.0233 6,-0.46 6,-6 l 0,-61.74023 c 0,-5.54 -0.46,-6 -6,-6 z m 215.11982,5.84277 33.24702,0 0,55.74703 -33.24702,0 z m -67.17859,-0.0714 33.24702,0 0,55.74702 -33.24702,0 z m 14.95122,26.69453 -8.24531,-13.54587 -0.14724,6.33122 4.41713,7.36189 z m -6.65515,-17.81577 16.25505,0 c 1.37037,0 2.47359,1.10322 2.47359,2.47359 l 0,13.89925 c 0,1.37037 -1.10322,2.47359 -2.47359,2.47359 l -16.25505,0 c -1.37037,0 -2.47359,-1.10322 -2.47359,-2.47359 l 0,-13.89925 c 0,-1.37037 1.10322,-2.47359 2.47359,-2.47359 z m 73.83372,17.17296 -8.24531,-13.54587 -0.14724,6.33122 4.41713,7.36189 z m -6.65515,-17.81577 16.25505,0 c 1.37037,0 2.47359,1.10322 2.47359,2.47359 l 0,13.89925 c 0,1.37037 -1.10322,2.47359 -2.47359,2.47359 l -16.25505,0 c -1.37037,0 -2.47359,-1.10322 -2.47359,-2.47359 l 0,-13.89925 c 0,-1.37037 1.10322,-2.47359 2.47359,-2.47359 z m 76.88391,19.82618 -9.39474,-15.43422 -0.16776,7.21382 5.03289,8.38816 z m -7.5829,-20.29936 18.52105,0 c 1.56141,0 2.81843,1.25702 2.81843,2.81843 l 0,15.83684 c 0,1.56141 -1.25702,2.81842 -2.81843,2.81842 l -18.52105,0 c -1.56141,0 -2.81842,-1.25701 -2.81842,-2.81842 l 0,-15.83684 c 0,-1.56141 1.25701,-2.81843 2.81842,-2.81843 z m -21.568,20.29936 -9.39474,-15.43422 -0.16776,7.21382 5.03289,8.38816 z m -7.5829,-20.29936 18.52105,0 c 1.56141,0 2.81843,1.25702 2.81843,2.81843 l 0,15.83684 c 0,1.56141 -1.25702,2.81842 -2.81843,2.81842 l -18.52105,0 c -1.56141,0 -2.81842,-1.25701 -2.81842,-2.81842 l 0,-15.83684 c 0,-1.56141 1.25701,-2.81843 2.81842,-2.81843 z m 95.03569,20.29936 -9.39474,-15.43422 -0.16776,7.21382 5.03289,8.38816 z m -7.5829,-20.29936 18.52105,0 c 1.56141,0 2.81843,1.25702 2.81843,2.81843 l 0,15.83684 c 0,1.56141 -1.25702,2.81842 -2.81843,2.81842 l -18.52105,0 c -1.56141,0 -2.81842,-1.25701 -2.81842,-2.81842 l 0,-15.83684 c 0,-1.56141 1.25701,-2.81843 2.81842,-2.81843 z m 36.73386,20.29936 -9.39474,-15.43422 -0.16776,7.21382 5.03289,8.38816 z m -7.5829,-20.29936 18.52105,0 c 1.56141,0 2.81843,1.25702 2.81843,2.81843 l 0,15.83684 c 0,1.56141 -1.25702,2.81842 -2.81843,2.81842 l -18.52105,0 c -1.56141,0 -2.81842,-1.25701 -2.81842,-2.81842 l 0,-15.83684 c 0,-1.56141 1.25701,-2.81843 2.81842,-2.81843 z m 65.88477,20.29936 -9.39474,-15.43422 -0.16776,7.21382 5.03289,8.38816 z m -7.5829,-20.29936 18.52105,0 c 1.56141,0 2.81843,1.25702 2.81843,2.81843 l 0,15.83684 c 0,1.56141 -1.25702,2.81842 -2.81843,2.81842 l -18.52105,0 c -1.56141,0 -2.81842,-1.25701 -2.81842,-2.81842 l 0,-15.83684 c 0,-1.56141 1.25701,-2.81843 2.81842,-2.81843 z m -109.02089,20.29936 -9.39474,-15.43422 -0.16776,7.21382 5.03289,8.38816 z m -7.5829,-20.29936 18.52105,0 c 1.56141,0 2.81843,1.25702 2.81843,2.81843 l 0,15.83684 c 0,1.56141 -1.25702,2.81842 -2.81843,2.81842 l -18.52105,0 c -1.56141,0 -2.81842,-1.25701 -2.81842,-2.81842 l 0,-15.83684 c 0,-1.56141 1.25701,-2.81843 2.81842,-2.81843 z m 95.03575,20.29936 -9.39474,-15.43422 -0.16776,7.21382 5.03289,8.38816 z m -7.5829,-20.29936 18.52105,0 c 1.56141,0 2.81843,1.25702 2.81843,2.81843 l 0,15.83684 c 0,1.56141 -1.25702,2.81842 -2.81843,2.81842 l -18.52105,0 c -1.56141,0 -2.81842,-1.25701 -2.81842,-2.81842 l 0,-15.83684 c 0,-1.56141 1.25701,-2.81843 2.81842,-2.81843 z m -370.83136,20.42554 -9.39474,-15.43422 -0.16776,7.21382 5.03289,8.38816 z m -7.5829,-20.29936 18.52106,0 c 1.5614,0 2.81842,1.25702 2.81842,2.81843 l 0,15.83684 c 0,1.56141 -1.25702,2.81842 -2.81842,2.81842 l -18.52106,0 c -1.56141,0 -2.81842,-1.25701 -2.81842,-2.81842 l 0,-15.83684 c 0,-1.56141 1.25701,-2.81843 2.81842,-2.81843 z m 36.77378,20.29936 -9.39474,-15.43422 -0.16776,7.21382 5.03289,8.38816 z m -7.5829,-20.29936 18.52105,0 c 1.56141,0 2.81843,1.25702 2.81843,2.81843 l 0,15.83684 c 0,1.56141 -1.25702,2.81842 -2.81843,2.81842 l -18.52105,0 c -1.56141,0 -2.81842,-1.25701 -2.81842,-2.81842 l 0,-15.83684 c 0,-1.56141 1.25701,-2.81843 2.81842,-2.81843 z m 65.9646,20.29936 -9.39474,-15.43422 -0.16776,7.21382 5.03289,8.38816 z m -7.5829,-20.29936 18.52105,0 c 1.56141,0 2.81843,1.25702 2.81843,2.81843 l 0,15.83684 c 0,1.56141 -1.25702,2.81842 -2.81843,2.81842 l -18.52105,0 c -1.56141,0 -2.81842,-1.25701 -2.81842,-2.81842 l 0,-15.83684 c 0,-1.56141 1.25701,-2.81843 2.81842,-2.81843 z m -109.18044,20.29936 -9.39474,-15.43422 -0.16776,7.21382 5.03289,8.38816 z m -7.5829,-20.29936 18.52106,0 c 1.5614,0 2.81842,1.25702 2.81842,2.81843 l 0,15.83684 c 0,1.56141 -1.25702,2.81842 -2.81842,2.81842 l -18.52106,0 c -1.5614,0 -2.81842,-1.25701 -2.81842,-2.81842 l 0,-15.83684 c 0,-1.56141 1.25702,-2.81843 2.81842,-2.81843 z m 95.15551,20.29936 -9.39474,-15.43422 -0.16776,7.21382 5.03289,8.38816 z m -7.5829,-20.29936 18.52105,0 c 1.56141,0 2.81843,1.25702 2.81843,2.81843 l 0,15.83684 c 0,1.56141 -1.25702,2.81842 -2.81843,2.81842 l -18.52105,0 c -1.56141,0 -2.81842,-1.25701 -2.81842,-2.81842 l 0,-15.83684 c 0,-1.56141 1.25701,-2.81843 2.81842,-2.81843 z m 115.71652,43.3118 261.7857,0 0,3.21428 -261.7857,0 z m -279.87372,-0.0305 264.40826,0 0,3.21429 -264.40826,0 z m 13.85042,-12.79284 c 0,0 1.63664,8.52402 -14.57338,10.12779 -0.0849,-11.31995 14.57338,-10.12779 14.57338,-10.12779 z m 59.01836,-34.99213 191.10855,0 0,29.2944 -241.24985,0 c 0,0 19.81801,-1.3245 50.1413,-29.2944 z m 207.25549,0 262.11972,0 0,29.29442 -262.11972,0 z m -1.21399,-9.11163 263.71072,0 c 1.662,0 3,1.338 3,3 l 0,67.74113 c 0,1.662 -1.338,3 -3,3 l -263.71072,0 c -1.662,0 -3,-1.338 -3,-3 l 0,-67.74113 c 0,-1.662 1.338,-3 3,-3 z m -218.62531,3.38659 c 5.82972,1.16016 10.39258,1.88867 10.39258,1.88867 -2.50719,1.05448 -25.29193,20.45259 -41.50195,26.69922 -5.78424,2.22899 -12.23676,4.83148 -20.38086,4.82422 -3.6376,-0.003 -2.96083,-3.07687 2.82572,-8.88492 3.13325,-3.14489 7.76465,-7.62697 14.02046,-11.63714 17.97221,-11.52073 22.04134,-11.4051 34.64405,-12.89005 z"
         inkscape:connector-curvature="0"
         sodipodi:nodetypes="sccsssssscccccccccccccccssssssssscccccssssssssscccccssssssssscccccssssssssscccccssssssssscccccssssssssscccccssssssssscccccssssssssscccccssssssssscccccssssssssscccccssssssssscccccssssssssscccccssssssssscccccssssssssscccccccccccccccccccccccsssscssssccssssc" />
    </g>
  </g>
</svg>
