<svg xmlns:svg="http://www.w3.org/2000/svg" xmlns="http://www.w3.org/2000/svg" width="128" height="64" viewBox="0 0 128 64.000001" id="svg2" version="1.1">
  <defs id="defs4"/>
  <metadata id="metadata7"/>
  <g id="GAWDS" transform="matrix(0.37662567,0,0,0.37662567,-96.819161,-265.95563)" fill="#ffffff">
    <path d="m280.56 784.37q4.86 0 9.09 1.89 4.32 1.8 7.47 5.04 3.24 3.15 5.04 7.47 1.89 4.32 1.89 9.18 0 3.6-1.08 6.93-0.99 3.33-2.88 6.12-1.8 2.79-4.41 4.95-2.61 2.16-5.67 3.51 3.78 2.34 5.94 6.21 2.25 3.96 2.25 8.73 0 3.69-1.44 6.84-1.35 3.24-3.78 5.58-2.34 2.43-5.58 3.78-3.24 1.44-6.84 1.44l0-4.68q2.7 0 5.04-1.08 2.34-0.99 4.05-2.79 1.8-1.71 2.79-4.05 1.08-2.34 1.08-5.04 0-2.7-1.08-5.04-0.99-2.34-2.79-4.14-1.71-1.71-4.05-2.79-2.34-0.99-5.04-0.99-4.86 0-9.18-1.8-4.23-1.89-7.47-5.04-3.15-3.24-5.04-7.47-1.8-4.32-1.8-9.18 0-4.86 1.8-9.18 1.89-4.32 5.04-7.47 3.24-3.24 7.47-5.04 4.32-1.89 9.18-1.89zm0 4.77q-3.87 0-7.29 1.53-3.42 1.44-6.03 3.96-2.52 2.52-4.05 6.03-1.44 3.42-1.44 7.29 0 3.87 1.44 7.29 1.53 3.42 4.05 6.03 2.61 2.52 6.03 4.05 3.42 1.44 7.29 1.44 3.87 0 7.29-1.44 3.51-1.53 6.03-4.05 2.52-2.61 3.96-6.03 1.53-3.42 1.53-7.29 0-3.87-1.53-7.29-1.44-3.51-3.96-6.03-2.52-2.52-6.03-3.96-3.42-1.53-7.29-1.53zm71.34-5.04q4.86 0 9.18 1.89 4.32 1.8 7.47 5.04 3.24 3.15 5.04 7.47 1.89 4.32 1.89 9.18l0 22.5-4.77 0 0-8.37q-3.15 4.32-8.1 6.84-4.86 2.52-10.71 2.52-4.86 0-9.18-1.8-4.23-1.89-7.47-5.04-3.15-3.24-5.04-7.47-1.8-4.32-1.8-9.18 0-4.86 1.8-9.18 1.89-4.32 5.04-7.47 3.24-3.24 7.47-5.04 4.32-1.89 9.18-1.89zm0 4.77q-3.87 0-7.29 1.53-3.42 1.44-6.03 3.96-2.52 2.52-4.05 6.03-1.44 3.42-1.44 7.29 0 3.87 1.44 7.29 1.53 3.42 4.05 6.03 2.61 2.52 6.03 4.05 3.42 1.44 7.29 1.44 3.87 0 7.29-1.44 3.51-1.53 6.03-4.05 2.52-2.61 3.96-6.03 1.53-3.42 1.53-7.29 0-3.87-1.53-7.29-1.44-3.51-3.96-6.03-2.52-2.52-6.03-3.96-3.42-1.53-7.29-1.53zm69.15 42.39q-3.69 0-6.93-1.35-3.15-1.44-5.58-3.78-2.34-2.43-3.78-5.58-1.35-3.24-1.35-6.93l0-28.35 4.77 0 0 28.35q0 2.7 0.99 5.13 0.99 2.34 2.7 4.14 1.8 1.71 4.14 2.7 2.34 0.99 5.04 0.99 2.7 0 5.04-0.99 2.34-0.99 4.05-2.7 1.8-1.8 2.79-4.14 1.08-2.43 1.08-5.13l0-28.35 4.68 0 0 28.35q0 2.7 0.99 5.13 1.08 2.34 2.79 4.14 1.8 1.71 4.14 2.7 2.34 0.99 5.04 0.99 2.7 0 5.04-0.99 2.34-0.99 4.05-2.7 1.8-1.8 2.79-4.14 1.08-2.43 1.08-5.13l0-28.35 4.68 0 0 28.35q0 3.69-1.44 6.93-1.35 3.15-3.78 5.58-2.34 2.34-5.58 3.78-3.24 1.35-6.84 1.35-4.86 0-8.91-2.34-4.05-2.43-6.39-6.48-2.34 4.05-6.39 6.48-3.96 2.34-8.91 2.34zM518 784.1q5.85 0 10.71 2.61 4.86 2.52 8.1 6.84l0-30.87 4.68 0 0 45q0 4.86-1.89 9.18-1.8 4.23-5.04 7.47-3.15 3.15-7.47 5.04-4.23 1.8-9.09 1.8-4.86 0-9.18-1.8-4.23-1.89-7.47-5.04-3.15-3.24-5.04-7.47-1.8-4.32-1.8-9.18 0-4.86 1.8-9.18 1.89-4.32 5.04-7.47 3.24-3.24 7.47-5.04 4.32-1.89 9.18-1.89zm0 4.77q-3.87 0-7.29 1.53-3.42 1.44-6.03 3.96-2.52 2.52-4.05 6.03-1.44 3.42-1.44 7.29 0 3.87 1.44 7.29 1.53 3.42 4.05 6.03 2.61 2.52 6.03 4.05 3.42 1.44 7.29 1.44 3.87 0 7.29-1.44 3.42-1.53 5.94-4.05 2.61-2.61 4.05-6.03 1.53-3.42 1.53-7.29 0-3.87-1.53-7.29-1.44-3.51-4.05-6.03-2.52-2.52-5.94-3.96-3.42-1.53-7.29-1.53zm60.48 20.7q-2.34 0-4.5-0.81-2.07-0.9-3.69-2.34-1.53-1.53-2.52-3.51-0.9-2.07-0.99-4.41-0.18-1.26 0-2.7 0.09-2.34 0.99-4.32 0.99-2.07 2.52-3.51 1.62-1.53 3.69-2.34 2.16-0.9 4.5-0.9l16.92 0 0 4.68-16.92 0q-2.79 0-4.86 1.89-1.98 1.89-2.16 4.68-0.18 1.17 0 2.34 0.18 2.79 2.16 4.68 2.07 1.89 4.86 1.89l6.66 0 0.09 0q2.34 0 4.41 0.9 2.16 0.81 3.69 2.34 1.62 1.53 2.52 3.6 0.99 1.98 1.08 4.32l0 2.43 0 0.09 0 0.18q0 2.43-0.99 4.5-0.9 2.07-2.52 3.69-1.62 1.53-3.78 2.43-2.07 0.9-4.5 0.9l-17.37 0 0-4.68 17.37 0q2.61 0 4.59-1.62 1.98-1.71 2.43-4.32 0-0.27 0-0.54 0.09-0.36 0.09-0.63l0-1.89q-0.09-2.88-2.16-4.95-2.07-2.07-4.95-2.07l-6.66 0z" id="Base"/>
  </g>
  <g style="fill:#ffffff">
    <path id="path4158" d="m92.095703 19.110037q0.227051 0.131836 0.534668 0.131836 0.505371 0 0.930176-0.300293 0.424805-0.300293 0.915527-1.07666l0.98877-1.574707-1.31836-7.3974613 0.688477 0 1.069336 6.0717773 0.05859 0.556641 0.0293 0 0.07324-0.124512 3.962403-6.5039063 0.79102 0-5.529791 8.8916013q-0.754394 1.208496-1.333007 1.669922-0.571289 0.461426-1.369629 0.461426-0.417481 0-0.644531-0.117188L92.0957 19.110037ZM88.09668 5.2892361l0.673828 0q-1.069336 4.9731449-1.274414 5.8520509l0.0293 0q0.593261-1.1645509 1.318359-1.7944337 0.732422-0.6372071 1.669922-0.6372071 1.018066 0 1.530762 0.6884766 0.520019 0.6884762 0.520019 1.9995122 0 1.49414-0.578613 2.680664-0.571289 1.186523-1.604004 1.845703-1.032715 0.651855-2.299805 0.651855-0.490722 0-1.135254-0.168457-0.644531-0.168457-1.113281-0.446777L88.09668 5.2892361ZM86.595215 15.550467q0.695801 0.410156 1.560058 0.410156 1.018067 0 1.875-0.578613 0.864258-0.578614 1.347657-1.604004 0.483398-1.032715 0.483398-2.292481 0-1.054687-0.351562-1.6040038-0.344239-0.5566406-1.1792-0.5566406-0.637207 0-1.303711 0.5712891-0.666503 0.5712893-1.237793 1.6113283-0.563964 1.032715-0.791015 2.124023l-0.402832 1.918946zm-7.844238 0.842285q0.0293-0.878907 0.300293-2.387696l-0.0293 0q-0.688477 1.289063-1.420899 1.933594-0.732422 0.637207-1.611328 0.637207-0.981445 0-1.516113-0.695801-0.534668-0.703125-0.534668-1.992187 0-1.45752 0.600586-2.651367 0.600586-1.201172 1.640625-1.8603519 1.047363-0.6665039 2.270508-0.6665039 0.681152 0 1.625976 0.2416992l0.776367-3.6621093 0.673828 0-1.845703 8.7304689q-0.05127 0.249023-0.146484 1.12793-0.08789 0.878906-0.08789 1.245117l-0.6958 0zm1.201171-6.8115237q-0.783691-0.2563477-1.574707-0.2563477-1.018066 0-1.882324 0.5712891-0.864258 0.5712893-1.362305 1.5966793-0.490722 1.018067-0.490722 2.277832 0 1.12793 0.366211 1.662598 0.366211 0.527344 1.135254 0.527344 0.585937 0 1.303711-0.615235 0.717773-0.622558 1.281738-1.618652 0.563965-0.996094 0.791016-2.072754L79.952148 9.5812283ZM67.640137 13.499685q0 1.149903 0.585937 1.809082 0.593262 0.651856 1.662598 0.651856 0.9375 0 2.058105-0.615235l-0.131836 0.703125q-0.966796 0.527344-2.028808 0.527344-1.354981 0-2.102051-0.820312-0.74707-0.827637-0.74707-2.314453 0-1.303711 0.541992-2.387696 0.549316-1.0913084 1.464844-1.713867 0.922851-0.6298828 1.955566-0.6298828 0.959473 0 1.54541 0.4833985 0.593262 0.4833984 0.593262 1.3183593 0 1.289063-1.274414 1.889648-1.26709 0.600586-4.108887 0.644532l-0.01465 0.454101zM67.75 12.430349q2.34375 0 3.464355-0.432129 1.120606-0.432128 1.120606-1.413574 0-1.2597654-1.54541-1.2597654-1.091309 0-1.933594 0.8715824Q68.020996 11.06072 67.75 12.430349Zm-7.595215-3.5375973 0.673828 0-0.358886 2.1313473 0.0293 0q1.428223-2.3144528 3.134766-2.3144528 0.959473 0 1.40625 0.4907227 0.454102 0.4907226 0.454102 1.5234371 0 0.2417-0.05859 0.593262-0.05859 0.351563-1.047363 5.075684l-0.681153 0 0.886231-4.306641q0.197754-0.988769 0.197754-1.245117 0-1.5161134-1.289063-1.5161134-0.571289 0-1.318359 0.5126953-0.739746 0.5126951-1.31836 1.3330081-0.578613 0.820312-0.769043 1.728515l-0.74707 3.493653-0.681152 0 1.157226-5.412598q0.256348-1.2451172 0.32959-2.0874023zM50.35498 18.685232q1.025391 0.585938 2.021485 0.585938 1.333008 0 2.094726-0.739746 0.769043-0.732422 1.149903-2.39502l0.476074-2.116699-0.0293 0q-0.754394 1.35498-1.464844 1.955566-0.703125 0.600586-1.530761 0.600586-1.010743 0-1.545411-0.695801-0.527343-0.703125-0.527343-2.006836 0-1.442871 0.600586-2.636718 0.600586-1.193848 1.647949-1.8603519 1.047363-0.6665039 2.29248-0.6665039 0.373535 0 1.069336 0.073242 0.695801 0.073242 1.201172 0.1977539l-1.472168 6.8847659q-0.46875 2.167969-1.435547 3.105469-0.959472 0.944824-2.658691 0.944824-1.047363 0-2.01416-0.52002l0.124511-0.710449zm6.672364-9.1918944q-0.732422-0.168457-1.589356-0.168457-1.02539 0-1.896972 0.5786133-0.864258 0.5712891-1.354981 1.5893551-0.483398 1.010743-0.483398 2.263184 0 2.20459 1.457519 2.20459 0.651856 0 1.347656-0.593262 0.695801-0.600586 1.274415-1.625976 0.578613-1.025391 0.798339-2.087403l0.446778-2.1606444zm-7.82959-0.6005859 0.681152 0-1.127929 5.3247073q-0.175782 0.878906-0.175782 1.274414 0 0.439453 0.454102 0.439453 0.314941 0 0.622558-0.124512l-0.124511 0.563965q-0.358887 0.168457-0.717774 0.168457-0.930175 0-0.930175-0.996094 0-0.344238 0.05859-0.688476 0.06592-0.344239 1.259766-5.9619143zm0.856933-1.8896484q-0.22705 0-0.395507-0.1611329-0.161133-0.1611328-0.161133-0.4101562 0-0.234375 0.168457-0.3881836 0.168457-0.1538086 0.388183-0.1538086 0.227051 0 0.395508 0.1464844 0.175782 0.1464844 0.175782 0.3955078 0 0.234375-0.168457 0.402832-0.168458 0.1684571-0.402833 0.1684571zM41.77832 15.345388q0.373535 0.278321 0.856934 0.446778 0.483398 0.168457 0.944824 0.168457 0.864258 0 1.333008-0.358887 0.46875-0.358887 0.46875-1.069336 0-0.46875-0.263672-0.79834-0.263672-0.32959-0.981445-0.776367-0.856934-0.527344-1.193848-0.974121-0.336914-0.446777-0.336914-1.083984 0-0.9375004 0.688477-1.560059 0.6958-0.6298828 1.757812-0.6298828 0.388184 0 0.900879 0.1025391 0.512695 0.102539 0.849609 0.2783203l-0.146484 0.703125q-0.717773-0.46875-1.669922-0.46875-0.725098 0-1.201172 0.4101562-0.476074 0.4028322-0.476074 1.0766602 0 0.52002 0.256348 0.849609 0.263672 0.32959 0.974121 0.754395 0.834961 0.505371 1.186523 0.974121 0.358887 0.461426 0.358887 1.069336 0 0.966797-0.695801 1.54541-0.688476 0.571289-1.853027 0.571289-1.07666 0-1.904297-0.512695l0.146484-0.717774zm-6.04248-1.845703q0 1.149903 0.585937 1.809082 0.593262 0.651856 1.662598 0.651856 0.9375 0 2.058105-0.615235l-0.131835 0.703125q-0.966797 0.527344-2.028809 0.527344-1.354981 0-2.102051-0.820312-0.74707-0.827637-0.74707-2.314453 0-1.303711 0.541992-2.387696 0.549316-1.0913084 1.464844-1.713867 0.922851-0.6298828 1.955566-0.6298828 0.959473 0 1.54541 0.4833985 0.593262 0.4833984 0.593262 1.3183593 0 1.289063-1.274414 1.889648-1.26709 0.600586-4.108887 0.644532l-0.01465 0.454101zm0.109863-1.069336q2.34375 0 3.464356-0.432129 1.120605-0.432128 1.120605-1.413574 0-1.2597654-1.54541-1.2597654-1.091309 0-1.933594 0.8715824-0.834961 0.864257-1.105957 2.233886zm-3.852539 3.962403q0.0293-0.878907 0.300293-2.387696l-0.0293 0q-0.688476 1.289063-1.420898 1.933594-0.732422 0.637207-1.611328 0.637207-0.981446 0-1.516114-0.695801-0.534668-0.703125-0.534668-1.992187 0-1.45752 0.600586-2.651367 0.600586-1.201172 1.640625-1.8603519 1.047364-0.6665039 2.270508-0.6665039 0.681152 0 1.625977 0.2416992l0.776367-3.6621093 0.673828 0-1.845703 8.7304689q-0.05127 0.249023-0.146485 1.12793-0.08789 0.878906-0.08789 1.245117l-0.695801 0zm1.201172-6.8115237q-0.783691-0.2563477-1.574707-0.2563477-1.018067 0-1.882324 0.5712891-0.864258 0.5712893-1.362305 1.5966793-0.490723 1.018067-0.490723 2.277832 0 1.12793 0.366211 1.662598 0.366211 0.527344 1.135254 0.527344 0.585938 0 1.303711-0.615235 0.717774-0.622558 1.281738-1.618652 0.563965-0.996094 0.791016-2.072754l0.432129-2.0727537z" style="-inkscape-font-specification:'Segoe UI Light Italic';font-family:'Segoe UI';font-size:15px;font-style:italic;font-weight:300"/>
  </g>
</svg>
