<svg xmlns:svg="http://www.w3.org/2000/svg" xmlns="http://www.w3.org/2000/svg" version="1.1" id="Twitter" width="48" height="48" viewBox="0 0 48 48" xml:space="preserve">
  <path d="M3.1914062 0C1.4234483 0 2.9605947e-16 1.4234482 0 3.1914062L0 44.808594C0 46.576552 1.4234481 48 3.1914062 48L44.808594 48C46.576552 48 48 46.576552 48 44.808594L48 3.1914062C48 1.4234482 46.576552 2.9605947e-16 44.808594 0L3.1914062 0zM29.769531 11.816406C31.541103 11.816406 33.138825 12.561871 34.261719 13.759766 35.663976 13.482314 36.979618 12.970479 38.171875 12.265625 37.710747 13.699745 36.737828 14.90684 35.466797 15.667969 36.711603 15.519831 37.895831 15.188484 39 14.699219 38.177008 15.93275 37.130995 17.016503 35.921875 17.878906L35.943359 18.675781C35.943359 26.808001 29.754593 36.183594 18.433594 36.183594 14.958 36.183594 11.723877 35.165087 9 33.416016 9.4817655 33.470378 9.9719845 33.5 10.46875 33.5 13.351941 33.5 16.006079 32.518849 18.111328 30.869141 15.419314 30.820366 13.146861 29.042129 12.363281 26.595703 12.740096 26.670703 13.124082 26.708984 13.521484 26.708984 14.083887 26.708984 14.627038 26.632866 15.142578 26.494141 12.32875 25.927963 10.207031 23.439676 10.207031 20.458984L10.207031 20.382812C11.037474 20.84399 11.985561 21.120571 12.994141 21.154297 11.344432 20.05204 10.257812 18.168452 10.257812 16.033203 10.257812 14.904623 10.559304 13.848761 11.089844 12.941406 14.124898 16.664501 18.659409 19.114231 23.773438 19.371094 23.668437 18.921142 23.615234 18.450516 23.615234 17.96875 23.615234 14.571882 26.3708 11.816406 29.769531 11.816406z" id="Base" transform="translate(0,-1.9073486e-6)" fill="#ffffff"/>
</svg>
