<svg xmlns:svg="http://www.w3.org/2000/svg" xmlns="http://www.w3.org/2000/svg" width="56" height="48" viewBox="0 0 56 48" version="1.1">
  <g transform="translate(0,-1004.3622)" fill="#ffffff" id="Base">
    <path d="M27.4 0C25.5 0 24 1.5 24 3.4L24 22 4.6 22C2 22 0 24 0 26.6L0 43.4C0 46 2 48 4.6 48l22.9 0 24 0 1.1 0C54.5 48 56 46.5 56 44.6L56 43.4 56 20.6 56 3.4C56 1.5 54.5 0 52.6 0ZM41 14C41.5 14 42 14.4 42 15l0 20c0 0.6-0.4 1-1 1l-26.3 0 5.8 4.2c1.1 0.8-0.1 2.4-1.2 1.6l-8.3-6c-0.6-0.4-0.6-1.2 0-1.6l8.3-6c1.1-0.8 2.2 0.8 1.2 1.6L14.7 34 40 34 40 15c0-0.6 0.4-1 1-1z" transform="translate(0,1004.3622)"/>
  </g>
</svg>
