<svg xmlns:svg="http://www.w3.org/2000/svg" xmlns="http://www.w3.org/2000/svg" version="1.1" id="Facebook" width="48" height="48" viewBox="0 0 48 48" xml:space="preserve">
  <path d="M3.1914062 0C1.4234482 5.9211895e-16 0 1.4234481 0 3.1914062L0 44.808594C0 46.576552 1.4234481 48 3.1914062 48L44.808594 48C46.576552 48 48 46.576552 48 44.808594L48 3.1914062C48 1.4234481 46.576552 0 44.808594 0L3.1914062 0zM25.072266 9L31.234375 9 31.234375 14.490234 27.615234 14.490234C25.834726 14.490234 26.142578 17.037109 26.142578 17.037109L26.142578 19.714844 31.634766 19.714844 30.294922 24.136719 26.140625 24.136719 26.140625 39 19.847656 39C19.847656 39 19.87394 31.16612 19.894531 24.136719L16.365234 24.136719 16.365234 19.714844 19.902344 19.714844C19.910103 17.293145 19.916016 15.26859 19.916016 14.15625 19.916016 8.9781421 25.072266 9 25.072266 9z" transform="translate(0,-1.9073486e-6)" id="Base" fill="#ffffff"/>
</svg>
