<svg xmlns:svg="http://www.w3.org/2000/svg" xmlns="http://www.w3.org/2000/svg" width="48" height="48" viewBox="0 0 48.000001 48.000001" id="svg2" version="1.1">
  <g id="layer1" transform="translate(0,-1004.3622)">
    <g id="g4156" transform="translate(0.05223429,-0.03041715)">
      <path d="M3.3125 0C1.4768582 0 0 1.4787531 0 3.3144531L0 44.6875C2.9605947e-16 46.5231 1.4768582 48 3.3125 48L44.6875 48C46.523142 48 48 46.5231 48 44.6875L48 3.3144531C48 1.4787531 46.523142 0 44.6875 0L3.3125 0zM23.849609 8.9863281C24.007704 8.9784531 24.166003 8.9757813 24.324219 8.9882812 25.896568 9.5101812 26.294124 11.513828 26.953125 12.861328 27.364785 15.580028 26.088777 18.229278 26.148438 20.955078 29.550096 20.947078 32.951858 20.941641 36.353516 20.931641 37.285242 20.906141 38.58994 20.73935 38.6875 22.03125L38.6875 27.927734C38.807242 29.031734 38.437962 30.074613 38.183594 31.132812 37.260998 32.889512 36.248173 34.612269 35.291016 36.355469 34.71187 37.184669 34.472612 38.486766 33.330078 38.697266 28.620669 38.697266 23.901073 38.6875 19.1875 38.6875 17.875645 38.7319 16.160362 38.711828 15.574219 37.298828 15.455409 35.376628 15.554194 33.432453 15.521484 31.501953 15.558894 28.575853 15.439182 25.644656 15.597656 22.722656 16.27673 20.532056 18.104904 18.940972 19.367188 17.076172 20.557579 15.624672 20.444961 13.680369 20.525391 11.917969 20.119066 10.136869 21.716114 8.9095719 23.375 9.0136719L23.375 9.015625C23.532896 9.007625 23.691514 8.9942031 23.849609 8.9863281zM11.193359 21.535156C12.374688 21.420556 13.791094 22.269609 13.564453 23.599609L13.564453 37.132812C13.386239 38.780712 11.194213 39.113547 9.9414062 38.498047 8.9121371 38.110047 8.9079759 36.956909 8.9550781 36.037109L8.9550781 23.179688C8.9894521 22.069688 10.228906 21.520756 11.193359 21.535156z" transform="translate(-0.05223429,1004.3926)" id="Base" fill="#fff"/>
    </g>
  </g>
</svg>
