<svg version="1.1" id="Capa_1" xmlns="http://www.w3.org/2000/svg" xmlns:xlink="http://www.w3.org/1999/xlink" x="0px" y="0px"
	 width="445.199px" height="445.199px" viewBox="0 0 445.199 445.199" xml:space="preserve">
	<g id="Base" fill="#9dcc66">
		<path d="M127.21,310.611h190.779c1.32,0,2.568-0.604,3.389-1.643c0.818-1.035,1.119-2.39,0.814-3.675
			c-0.164-0.685-4.059-16.931-11.439-33.459c-10.445-23.392-22.441-35.251-35.65-35.251c-5.137,0-10.315,1.848-15.39,5.495
			c-0.084,0.06-0.165,0.122-0.245,0.188c-2.949,2.459-5.785,5.422-8.789,8.561c-7.803,8.154-15.871,16.586-26.326,16.587
			c-5.336,0.001-10.967-2.132-17.214-6.521c-5.665-3.979-11.953-5.996-18.689-5.996c-16.587,0-32.813,12.416-43.505,22.832
			c-11.056,10.771-19.971,23.133-21.649,26.738c-0.622,1.338-0.519,2.899,0.274,4.144
			C124.361,309.857,125.734,310.611,127.21,310.611z"/>
		<path d="M435.198,343.061H393.06V62.139c0-5.523-4.477-10-10-10h-280.92V10c0-5.523-4.477-10-10-10h-30c-5.523,0-10,4.477-10,10
			v42.139H10.001c-5.523,0-10,4.477-10,10v30c0,5.523,4.477,10,10,10h42.138v280.921c0,5.523,4.477,10,10,10h280.92v42.139
			c0,5.523,4.477,10,10,10h30c5.523,0,10-4.477,10-10v-42.139h42.139c5.523,0,10-4.477,10-10v-30
			C445.198,347.538,440.722,343.061,435.198,343.061z M343.06,102.139v240.921h-240.92V102.139H343.06z"/>
		<circle cx="270.856" cy="175.623" r="23.999"/>
	</g>
</svg>
