<svg xmlns:svg="http://www.w3.org/2000/svg" xmlns="http://www.w3.org/2000/svg" version="1.1" id="GooglePlus" width="48" height="48" viewBox="0 0 48 48" xml:space="preserve">
  <path d="M3.1914062 0C1.4234482 5.9211895e-16 0 1.4234481 0 3.1914062L0 44.808594C0 46.576552 1.4234481 48 3.1914062 48L44.808594 48C46.576552 48 48 46.576552 48 44.808594L48 3.1914062C48 1.4234481 46.576552 0 44.808594 0L3.1914062 0zM21.167969 9L28.527344 9C28.598092 9 28.660885 9.0450236 28.679688 9.1113281 28.699446 9.1776326 28.671241 9.248286 28.611328 9.2851562L26.507812 10.572266C26.482955 10.588067 26.451831 10.595703 26.421875 10.595703L23.980469 10.595703C24.905291 11.338995 26.828125 12.884575 26.828125 15.876953 26.828125 18.85322 25.032083 20.229739 23.447266 21.443359L23.396484 21.494141C22.898062 21.976243 22.332031 22.523686 22.332031 23.351562 22.332031 24.193692 22.898075 24.648377 23.351562 25.013672L24.818359 26.123047C26.558058 27.547354 28.19595 28.887914 28.195312 31.605469 28.195313 35.279482 24.567387 39 17.632812 39 11.668951 39 9 36.189086 9 33.404297 9 32.704382 9.223359 30.290021 12.09375 28.630859 14.524038 27.178667 17.851171 26.956867 19.638672 26.837891L19.763672 26.830078 19.693359 26.742188C19.13598 26.049708 18.558594 25.333753 18.558594 24.171875 18.558594 23.575134 18.724436 23.192372 18.898438 22.787109L18.957031 22.646484C18.55039 22.683355 18.09003 22.724609 17.673828 22.724609 13.345137 22.724609 11.009766 19.558824 11.009766 16.580078 11.009766 14.646713 11.967412 12.687622 13.574219 11.339844 15.617305 9.6989622 17.888706 9 21.167969 9zM18.238281 10.478516C17.174512 10.478516 16.07048 10.985341 15.425781 11.769531 14.831753 12.484938 14.542969 13.431636 14.542969 14.666016 14.542969 17.093566 16.014904 21.626953 19.5625 21.626953 20.521103 21.626953 21.618314 21.187883 22.292969 20.533203 23.296187 19.552578 23.296875 18.139913 23.296875 17.675781 23.296875 14.733906 21.495555 10.478516 18.238281 10.478516zM33.134766 19.099609L34.802734 19.099609C34.890373 19.099609 34.962891 19.170345 34.962891 19.255859L34.962891 23.011719 38.839844 23.011719C38.928119 23.011719 39 23.080192 39 23.166016L39 24.808594C39 24.894418 38.927801 24.964844 38.839844 24.964844L34.962891 24.964844 34.962891 28.746094C34.962891 28.831298 34.890373 28.900391 34.802734 28.900391L33.134766 28.900391C33.046809 28.900391 32.976562 28.831298 32.976562 28.746094L32.976562 24.964844 29.117188 24.964844C29.029231 24.964844 28.958984 24.895751 28.958984 24.810547L28.958984 23.166016C28.958984 23.080501 29.029231 23.011719 29.117188 23.011719L32.976562 23.011719 32.976562 19.255859C32.976562 19.170345 33.046809 19.099609 33.134766 19.099609zM20.205078 27.927734C20.181495 27.927734 17.816492 27.957112 15.984375 28.556641 13.696539 29.362519 12.535156 30.718473 12.535156 32.583984 12.535156 35.440965 15.374532 37.361328 19.601562 37.361328 23.24317 37.361328 25.507494 35.74171 25.507812 33.134766 25.507812 31.088311 24.084664 30.013251 21.126953 27.966797 20.806994 27.927758 20.605665 27.927734 20.205078 27.927734z" id="Base" transform="translate(0,-1.9073486e-6)" fill="#ffffff"/>
</svg>
