<svg version="1.1" id="Layer_1" xmlns="http://www.w3.org/2000/svg" xmlns:xlink="http://www.w3.org/1999/xlink" x="0px" y="0px"
	 width="217.5px" height="145px" viewBox="0 0 217.5 145" enable-background="new 0 0 217.5 145" xml:space="preserve">
	 <g id="Base">
<path d="M202.5,74.5h-41c-7.732,0-14,6.268-14,14v41c0,7.732,6.268,14,14,14h41c7.732,0,14-6.268,14-14v-41
	C216.5,80.768,210.232,74.5,202.5,74.5z M185.306,120.27l-2.046-2.197l9.224-8.572H165.5v-3h26.978l-9.219-8.569l2.046-2.197
	l13.194,12.27L185.306,120.27z" fill="#ffffff"/>
<path d="M56.5,74.5h-41c-7.732,0-14,6.268-14,14v41c0,7.732,6.268,14,14,14h41c7.732,0,14-6.268,14-14v-41
	C70.5,80.768,64.232,74.5,56.5,74.5z M51.5,111.5H24.522l9.219,8.569l-2.046,2.197L18.5,109.997L31.694,97.73l2.046,2.197
	l-9.224,8.572H51.5V111.5z" fill="#ffffff"/>
<path d="M129.5,1.5h-41c-7.732,0-14,6.268-14,14v41c0,7.732,6.268,14,14,14h41c7.732,0,14-6.268,14-14v-41
	C143.5,7.768,137.232,1.5,129.5,1.5z M118.572,34.24l-9.072-9.763V52.5h-3V25.56l-8.069,8.681l-2.197-2.046L108.503,19
	l12.267,13.194L118.572,34.24z" fill="#ffffff"/>
<path d="M129.5,74.5h-41c-7.732,0-14,6.268-14,14v41c0,7.732,6.268,14,14,14h41c7.732,0,14-6.268,14-14v-41
	C143.5,80.768,137.232,74.5,129.5,74.5z M109.499,124.501l-12.267-13.194l2.197-2.046l8.071,8.685V91.5h3v27.519l9.071-9.758
	l2.197,2.046L109.499,124.501z" fill="#ffffff"/>
	</g>
</svg>
