<svg xmlns:svg="http://www.w3.org/2000/svg" xmlns="http://www.w3.org/2000/svg" width="120" height="48" viewBox="0 0 120 48.000001" id="svg4145" version="1.1">
  <g id="layer1" transform="translate(0,-1004.3622)">
    <path d="m41.698658 1004.3622c-5.722656 0-5.722656 4.7682-5.722656 5.7227l0 36.5546c0 5.7227 4.768203 5.7227 5.722656 5.7227l36.554688 0c5.722656 0 5.722656-4.7682 5.722656-5.7227l0-36.5546c0-0.9545 0-5.7227-5.722656-5.7227zm18.273438 8.5684c0.202652 0 0.397095 0.08 0.539062 0.2246l10.679688 10.8906c0.726508 0.7137-0.37015 1.7903-1.070313 1.0508l-9.394531-9.5821 0 27.5274c0.01434 1.0142-1.514344 1.0142-1.5 0l0-27.5274-9.394531 9.5821c-0.700163 0.7395-1.796821-0.3371-1.070313-1.0508l10.679688-10.8906c0.140069-0.1427 0.331308-0.2236 0.53125-0.2246zM110 1033.2236 110 1033.2236" id="rect5241" style="fill:#000;opacity:0.95"/>
    <path d="m110 1033.2236c0-0.4773 0-4.8614-4.86135-4.8614l-14.2773 0C86 1028.3622 86 1032.7463 86 1033.2236l0 14.2773c0 0.4772 0 4.8613 4.86135 4.8613l14.2773 0c4.86135 0 4.86135-4.3841 4.86135-4.8613zm-4.2842 7.1367c0.00051 0.1013-0.04 0.1985-0.1123 0.2695l-5.4453 5.3398c-0.356792 0.365-0.896819-0.185-0.5254-0.5351l4.79105-4.6973-13.7637 0c-0.507121 0.01-0.507121-0.7572 0-0.75l13.7637 0-4.79105-4.6973c-0.371419-0.3501 0.168608-0.9001 0.5254-0.5351l5.4453 5.3398c0.0713 0.07 0.11176 0.1656 0.1123 0.2656z" id="rect5241-3" style="fill:#000;opacity:0.95"/>
    <path d="m9.952 1047.5008c0 0.4773 0 4.8614 4.8614 4.8614l14.2773 0c4.8613 0 4.8613-4.3841 4.8613-4.8614l0-14.2773c0-0.4772 0-4.8613-4.8613-4.8613l-14.2773 0c-4.8614 0-4.8614 4.3841-4.8614 4.8613zm4.2842-7.1367c-0.0005-0.1013 0.04-0.1985 0.1123-0.2695l5.4453-5.3398c0.3568-0.365 0.8968 0.185 0.5254 0.5351l-4.791 4.6973 13.7637 0c0.5071-0.01 0.5071 0.7572 0 0.75l-13.7637 0 4.791 4.6973c0.3714 0.3501-0.1686 0.9001-0.5254 0.5351l-5.4453-5.3398c-0.071-0.07-0.1118-0.1656-0.1123-0.2656z" id="rect5241-3-5" style="fill:#000;opacity:0.95"/>
  </g>
</svg>
