<svg xmlns:svg="http://www.w3.org/2000/svg" xmlns="http://www.w3.org/2000/svg" width="48" height="48" viewBox="0 0 48 48" version="1.1">
  <g id="Base" transform="translate(0,-1004.3622)" fill="#0c0c0e" stroke="#8bc34a" stroke-width="0.25">
    <path d="m13.066391 1051.6279 5.117095-16.8514 4.734869 8.9563-9.352225 8.5262-0.721075 0.1032 0.221336-0.7345zm1.774697-24.3707 5.772588 4.6107 4.272978-1.6378-1.647024 12.9719zM3.6679311 1016.6465c-0.2035797-0.203-0.1865028-0.2198 0.1527952-0.1499l8.5565377 0.869c0 0.06-0.343791 0.3714-0.763976 0.6919-0.420188 0.3203-0.763978 0.6692-0.763978 0.7752 0 0.4396 0.521212 1.2734 0.754624 1.207l11.643122-1.8266 21.217227 2.3581-24.411426 9.4616zm7.7135699 2.6897c-0.229806-0.4444-0.223582-0.4654 0.265625-0.8969l16.131566-14.0771-1.802643 13.5825c0 0.1629-0.312837 0.1833-1.566152 0.1018-1.442409-0.093-1.976624-0.035-6.761194 0.7455-2.857273 0.4659-5.383331 0.8814-5.613463 0.9231-0.346504 0.063-0.458867 0-0.653739-0.3793z"/>
  </g>
</svg>