<svg xmlns="http://www.w3.org/2000/svg" xmlns:xlink="http://www.w3.org/1999/xlink" version="1.1" id="Layer_1" x="0px" y="0px" width="128px" height="128px" viewBox="0 0 512 512" enable-background="new 0 0 512 512" xml:space="preserve">
<g id="Base" fill="#9dcc66">
	<path d="M233.126,171.112c-2.323,0-4.677,0.13-7.049,0.396c-27.756,3.091-50.327,25.446-53.665,53.167   c-2.601,21.421,5.885,42.177,22.702,55.538c1.968,1.573,3.127,3.954,3.127,6.47v16.048c0,10.607,8.617,19.242,19.237,19.242h31.332   c10.616,0,19.233-8.635,19.233-19.242v-16.048c0-2.516,1.164-4.897,3.131-6.46c14.713-11.717,23.168-29.175,23.168-47.901   C294.343,198.576,266.884,171.112,233.126,171.112z"/>
	<path d="M462.28,302.905c-10.068-56.361-34.643-194.315-50.695-215.074C383.056,41.563,325.455,9.872,258.928,9.872   c-94.89,0-201.223,17.436-208.968,157.143c-7.583,136.833,30.591,166.104,57.7,191.487c10.616,9.938,16.65,23.82,16.65,38.368   v92.697c0,6.946,5.616,12.562,12.557,12.562h152.863c6.937,0,12.552-5.616,12.552-12.562v-13.86c0-7.786,3.1-15.262,8.635-20.756   c5.535-5.513,13.02-8.563,20.814-8.536c21.637,0.112,47.775,0.162,50.471-0.188c42.339-5.418,30.577-52.326,40.452-119.474h23.411   c5.76,0,11.146-2.862,14.408-7.629C463.717,314.352,463.295,308.583,462.28,302.905z M224.882,84.851c0-2.729,2.212-4.94,4.94-4.94   h6.643c2.729,0,4.94,2.212,4.94,4.94v27.296c0,2.729-2.212,4.94-4.94,4.94h-6.643c-2.729,0-4.94-2.212-4.94-4.94V84.851z    M147.955,112.277c0.927-0.927,2.184-1.447,3.494-1.447c1.311,0,2.568,0.521,3.494,1.448l14.446,14.455   c1.928,1.929,1.928,5.057-0.001,6.986l-4.694,4.695c-0.927,0.927-2.184,1.447-3.494,1.447c-1.311,0-2.568-0.521-3.495-1.448   l-14.445-14.456c-1.928-1.93-1.927-5.057,0.001-6.986L147.955,112.277z M284.567,290.536v12.193   c0,15.756-10.297,29.009-24.494,33.771v13.689c0,7.646-6.182,13.851-13.842,13.851h-26.174c-7.665,0-13.842-6.205-13.842-13.851   v-13.689c-14.201-4.762-24.494-18.016-24.494-33.771v-12.193c-19.264-16.982-28.834-42.047-25.72-67.848   c4.259-35.236,32.949-63.677,68.252-67.606c46.935-5.196,86.615,31.458,86.615,77.238   C310.868,254.757,301.33,275.751,284.567,290.536z M308.587,136.781c-0.926,0.927-2.183,1.448-3.494,1.448   c-1.311,0-2.567-0.52-3.494-1.447l-4.695-4.695c-1.929-1.929-1.929-5.055-0.001-6.984l14.442-14.454   c0.926-0.927,2.183-1.448,3.494-1.448s2.567,0.521,3.494,1.447l4.695,4.696c1.928,1.929,1.929,5.055,0.001,6.984L308.587,136.781z"/>
</g>
</svg>
