<svg xmlns:svg="http://www.w3.org/2000/svg" xmlns="http://www.w3.org/2000/svg" version="1.1" id="Youtube" width="48" height="48" viewBox="0 0 48 48" xml:space="preserve">
  <path d="M3.1914062 0C1.4234482 5.9211895e-16 0 1.4234481 0 3.1914062L0 44.808594C0 46.576552 1.4234481 48 3.1914062 48L44.808594 48C46.576552 48 48 46.576552 48 44.808594L48 3.1914062C48 1.4234481 46.576552 0 44.808594 0L3.1914062 0zM13.511719 9L15.886719 9 17.283203 13.033203 18.662109 9.0117188 21.060547 9.0117188 18.46875 14.425781 18.466797 20.744141 16.273438 20.744141 16.269531 14.427734 13.511719 9zM23.554688 11.927734C24.092688 11.927734 24.5527 12.015167 24.9375 12.1875 25.3243 12.360833 25.623278 12.585615 25.830078 12.863281 26.040878 13.141948 26.183366 13.429656 26.259766 13.722656 26.337766 14.019656 26.376953 14.467932 26.376953 15.072266L26.376953 17.15625C26.376953 17.920583 26.339178 18.482844 26.267578 18.839844 26.196778 19.197844 26.046147 19.52851 25.810547 19.839844 25.578547 20.147844 25.279216 20.378391 24.916016 20.525391 24.548816 20.673724 24.128697 20.746094 23.654297 20.746094 23.124297 20.746094 22.676594 20.685927 22.308594 20.558594 21.939394 20.431927 21.654372 20.239995 21.451172 19.986328 21.245972 19.732328 21.102825 19.423167 21.015625 19.0625 20.928025 18.702167 20.884766 18.159833 20.884766 17.4375L20.886719 15.255859C20.886719 14.464859 20.965847 13.847677 21.123047 13.402344 21.281447 12.958677 21.566516 12.602984 21.978516 12.333984 22.389316 12.063651 22.915087 11.927734 23.554688 11.927734zM27.693359 12.246094L29.603516 12.246094 29.603516 18.660156C29.603516 19.00749 29.948034 19.291016 30.365234 19.291016 30.784834 19.291016 31.128906 19.00749 31.128906 18.660156L31.128906 12.246094 32.958984 12.246094 32.958984 20.486328 30.632812 20.486328 30.671875 19.804688C30.512675 20.081687 30.319091 20.288734 30.087891 20.427734 29.855891 20.567401 29.589863 20.636719 29.289062 20.636719 28.945863 20.636719 28.659547 20.570786 28.435547 20.439453 28.208747 20.30612 28.041194 20.128156 27.933594 19.910156 27.825994 19.689156 27.760375 19.462276 27.734375 19.224609 27.709175 18.985276 27.693359 18.512687 27.693359 17.804688L27.693359 12.246094zM23.632812 13.296875C23.125212 13.296875 22.707031 13.676578 22.707031 14.142578L22.707031 18.529297C22.707031 18.995964 23.125213 19.376953 23.632812 19.376953 24.140812 19.376953 24.554688 18.995964 24.554688 18.529297L24.554688 14.142578C24.554688 13.676578 24.140812 13.296875 23.632812 13.296875zM13.908203 22.433594L34.091797 22.433594C36.791397 22.433594 39 24.170635 39 26.292969L39 35.140625C39 37.262958 36.791397 39 34.091797 39L13.908203 39C11.207803 39 9 37.262958 9 35.140625L9 26.292969C9 24.170635 11.207803 22.433594 13.908203 22.433594zM11.085938 25.392578L11.085938 26.75 13.167969 26.755859 13.167969 36.101562 15.253906 36.101562 15.253906 26.78125 17.755859 26.78125 17.755859 25.400391 11.085938 25.392578zM26.089844 25.400391L24.005859 25.402344 23.996094 36.033203 25.708984 36.011719 25.865234 35.349609C28.054434 37.023276 29.430934 35.877141 29.427734 33.869141L29.423828 29.726562C29.422228 28.147896 28.005631 27.203135 26.082031 28.480469L26.089844 25.400391zM33.585938 27.701172C32.947784 27.692781 32.299872 27.838047 31.826172 28.123047 31.429772 28.36038 31.127172 28.678802 30.951172 29.105469 30.773572 29.532469 30.685547 30.114469 30.685547 30.855469L30.685547 33.326172C30.686347 37.432172 36.671031 36.851979 35.957031 33.320312L34.392578 33.326172C34.391778 33.377839 34.389472 33.438906 34.388672 33.503906L34.388672 34.230469C34.388672 34.619802 34.002003 34.9375 33.533203 34.9375L33.226562 34.9375C32.756963 34.9375 32.371094 34.619802 32.371094 34.230469L32.371094 34.150391 32.371094 33.349609 32.371094 32.318359 35.953125 32.318359 35.953125 31.193359C35.953125 30.372359 35.927303 29.553318 35.845703 29.083984 35.685453 28.156068 34.649527 27.715156 33.585938 27.701172zM17.347656 28.169922L17.353516 33.101562C17.355116 33.857562 17.333728 34.421068 17.361328 34.677734 17.412128 35.130068 17.392884 35.657651 17.896484 35.958984 18.834884 36.522318 20.633984 35.875646 21.083984 35.070312L21.080078 36.097656 22.755859 36.099609 22.753906 28.169922 20.667969 28.169922 20.667969 33.146484C20.667969 33.866484 20.721616 34.226516 20.666016 34.353516 20.496416 34.739516 19.732747 35.148865 19.435547 34.394531 19.385147 34.262531 19.430487 33.865641 19.429688 33.181641L19.421875 28.169922 17.347656 28.169922zM26.964844 28.894531C27.468044 28.894531 27.878906 29.175531 27.878906 29.519531L27.878906 34.169922C27.878906 34.512922 27.468044 34.792969 26.964844 34.792969 26.463644 34.792969 26.054688 34.512922 26.054688 34.169922L26.054688 29.519531C26.054687 29.175865 26.463644 28.894531 26.964844 28.894531zM33.339844 29.214844L33.464844 29.214844C33.977644 29.214844 34.398438 29.563281 34.398438 29.988281L34.375 30.943359 32.400391 30.943359 32.410156 29.988281C32.410156 29.563281 32.828244 29.214844 33.339844 29.214844z" id="Base" transform="translate(0,-1.9073486e-6)" fill="#ffffff"/>
</svg>
